<svg width="40" height="40" viewBox="0 0 40 40" fill="none" xmlns="http://www.w3.org/2000/svg">
<g clip-path="url(#clip0_234_42)">
<path d="M38.1818 20C38.1818 23.596 37.1154 27.1113 35.1176 30.1013C33.1197 33.0913 30.2801 35.4217 26.9578 36.7978C23.6355 38.1739 19.9798 38.534 16.4528 37.8325C12.9259 37.1309 9.68623 35.3993 7.14345 32.8565C4.60068 30.3137 2.86903 27.074 2.16748 23.5471C1.46593 20.0202 1.82599 16.3644 3.20213 13.0421C4.57827 9.71982 6.90868 6.88021 9.89867 4.88237C12.8886 2.88452 16.4039 1.81818 19.9999 1.81818C22.3876 1.81818 24.7519 2.28846 26.9578 3.20218C29.1637 4.11591 31.1681 5.45517 32.8564 7.14351C34.5448 8.83185 35.884 10.8362 36.7978 13.0421C37.7115 15.248 38.1818 17.6123 38.1818 20V20Z" stroke="#010101" stroke-width="3" stroke-linecap="round" stroke-linejoin="round"/>
<path d="M16.3635 12.7273L27.2726 20L16.3635 27.2728V12.7273Z" stroke="#010101" stroke-width="3" stroke-linecap="round" stroke-linejoin="round"/>
</g>
<defs>
<clipPath id="clip0_234_42">
<rect width="40" height="40" fill="white"/>
</clipPath>
</defs>
</svg>
